<?xml version="1.0" encoding="utf-8"?>
<!-- Generator: Adobe Illustrator 19.0.0, SVG Export Plug-In . SVG Version: 6.00 Build 0)  -->
<svg version="1.1" id="Layer_1" xmlns="http://www.w3.org/2000/svg" xmlns:xlink="http://www.w3.org/1999/xlink" x="0px" y="0px"
	 viewBox="0 0 560 960" style="enable-background:new 0 0 560 960;" xml:space="preserve">
<style type="text/css">
	.st0{opacity:0.5;fill:#2A5BCE;}
	.st1{opacity:0.5;fill:#596D98;}
	.st2{opacity:0.5;fill:#A5B3CE;}
	.st3{opacity:0.5;fill:#B6C6DE;}
</style>
<path id="XMLID_1_" class="st0" d="M89.2,138.6H25.7c-1.6,0-3-1.4-3-3V97.2c0-1.6,1.4-3,3-3h63.5c1.7,0,3,1.4,3,3v38.4
	C92.2,137.3,90.8,138.6,89.2,138.6z"/>
<path id="XMLID_2_" class="st1" d="M55.2,89.7H24.4c-1,0-1.8-0.8-1.8-1.8V59.5c0-1,0.8-1.8,1.8-1.8h30.8c1,0,1.8,0.8,1.8,1.8v28.4
	C57,88.8,56.2,89.7,55.2,89.7z"/>
<path id="XMLID_3_" class="st2" d="M90.7,169.8H65.5c-0.8,0-1.5-0.7-1.5-1.5v-23.9c0-0.8,0.7-1.5,1.5-1.5h25.2
	c0.8,0,1.5,0.7,1.5,1.5v23.9C92.2,169.2,91.5,169.8,90.7,169.8z"/>
<path id="XMLID_4_" class="st3" d="M492.2,119.2h-16.9c-0.6,0-1-0.5-1-1v-16.4c0-0.6,0.5-1,1-1h16.9c0.6,0,1,0.5,1,1v16.4
	C493.2,118.7,492.7,119.2,492.2,119.2z"/>
<path id="XMLID_5_" class="st0" d="M524.7,96.4h-27.9c-0.9,0-1.7-0.8-1.7-1.7V66.9c0-0.9,0.8-1.7,1.7-1.7h27.9
	c0.9,0,1.7,0.8,1.7,1.7v27.9C526.4,95.6,525.6,96.4,524.7,96.4z"/>
<path id="XMLID_7_" class="st3" d="M108.4,350.7l0-16.9c0-0.6,0.5-1,1-1l16.4,0c0.6,0,1,0.5,1,1l0,16.9c0,0.6-0.5,1-1,1l-16.4,0
	C108.9,351.7,108.4,351.2,108.4,350.7z"/>
<path id="XMLID_6_" class="st0" d="M131.2,383.3l0-27.9c0-0.9,0.8-1.7,1.7-1.7l27.9,0c0.9,0,1.7,0.8,1.7,1.7l0,27.9
	c0,0.9-0.8,1.7-1.7,1.7l-27.9,0C131.9,384.9,131.2,384.2,131.2,383.3z"/>
<path id="XMLID_8_" class="st0" d="M341.2,556.2h-63.5c-1.6,0-3-1.4-3-3v-38.4c0-1.6,1.4-3,3-3h63.5c1.6,0,3,1.4,3,3v38.4
	C344.2,554.8,342.8,556.2,341.2,556.2z"/>
<path id="XMLID_10_" class="st1" d="M464.4,742.5h-30.8c-1,0-1.8-0.8-1.8-1.8v-28.4c0-1,0.8-1.8,1.8-1.8h30.8c1,0,1.8,0.8,1.8,1.8
	v28.4C466.2,741.7,465.4,742.5,464.4,742.5z"/>
<path id="XMLID_9_" class="st2" d="M478.8,784.6h-25.2c-0.8,0-1.5-0.7-1.5-1.5v-23.9c0-0.8,0.7-1.5,1.5-1.5h25.2
	c0.8,0,1.5,0.7,1.5,1.5v23.9C480.2,783.9,479.6,784.6,478.8,784.6z"/>
<path id="XMLID_11_" class="st0" d="M47.1,888l0-27.9c0-0.9,0.8-1.7,1.7-1.7l27.9,0c0.9,0,1.7,0.8,1.7,1.7l0,27.9
	c0,0.9-0.8,1.7-1.7,1.7l-27.9,0C47.8,889.7,47.1,888.9,47.1,888z"/>
<path id="XMLID_12_" class="st1" d="M116.5,858.4H85.7c-1,0-1.8-0.8-1.8-1.8v-28.4c0-1,0.8-1.8,1.8-1.8h30.8c1,0,1.8,0.8,1.8,1.8
	v28.4C118.3,857.6,117.4,858.4,116.5,858.4z"/>
<path id="XMLID_13_" class="st2" d="M386.5,556.2h-25.2c-0.8,0-1.5-0.7-1.5-1.5v-23.9c0-0.8,0.7-1.5,1.5-1.5h25.2
	c0.8,0,1.5,0.7,1.5,1.5v23.9C388,555.5,387.3,556.2,386.5,556.2z"/>
</svg>
