<?xml version="1.0" encoding="utf-8"?>
<!-- Generator: Adobe Illustrator 19.0.0, SVG Export Plug-In . SVG Version: 6.00 Build 0)  -->
<svg version="1.1" id="Layer_1" xmlns="http://www.w3.org/2000/svg" xmlns:xlink="http://www.w3.org/1999/xlink" x="0px" y="0px"
	 viewBox="0 0 200 200" style="enable-background:new 0 0 200 200;" xml:space="preserve">
<style type="text/css">
	.st0{fill:none;}
	.st1{fill:#FFFFFF;}
</style>
<g id="Layer_3">
	<path id="XMLID_5_" d="M197.3,38.6c-0.8-11.2-5.1-20.7-14.2-27.5c-15.9-12-32.2-11.4-48.7,2.6c-9.4,8-20.6,16.5-33.6,17.3
		c-14,0.8-25.3-8.8-35.3-17.3C49-0.3,32.7-0.8,16.8,11.2C7.8,18,3.5,27.4,2.7,38.6C1.4,57,7.2,76.3,12.8,93.6
		c5.9,18.2,11.3,37.1,18.7,54.9c3.8,9.1,8,18,13.1,26.4c4.3,7.2,9.6,15.8,16.6,20.7c1.4,1,3.9,2.6,5.3,0.7c0.4-0.6,0.6-1.3,0.7-2
		c4-17.9,5.7-36.8,18.3-51.3c4.5-5.1,11.3-8.8,18-7.4c9.1,2,14.8,11.7,18.7,19.3c6.5,12.7,8.3,25.8,10.3,39.7
		c0.3,2.2,2.8,3.3,4.5,1.9l0,0c14.6-11.3,23.4-28.2,30.3-45c8.1-19.8,14.5-40.5,20.8-61C193.3,73.8,198.6,56.4,197.3,38.6z"/>
</g>
<path id="XMLID_7_" class="st0" d="M131.2,125.2c0.1-0.3,0.3-0.7,0.4-1.1L131.2,125.2z"/>
<path id="XMLID_3_" d="M88.2,75.9"/>
<path id="XMLID_1_" class="st1" d="M135.3,189.4c-1.3-8.5-1.9-15.9-3.6-23c-1.6-6.6-3.7-13.3-6.6-19.3
	c-8.6-17.2-18.8-21.8-37.2-17.8c18.4-16,41-5.4,53.7,26.5c6.5-8.5,12-16.5,11.1-27.4c-0.9-9.9-7.8-14.8-15.8-16.7
	c-17.4-4.2-35-7.5-52.5-10.8c-19.8-3.7-39-9.4-54.9-22.7C22.3,72.4,15.6,64.5,11.7,56c-5.6-12.3-5.7-26.2,4-37
	c9.8-10.8,22.6-11.4,34.7-5.6c10.5,5,20.4,11.8,29.7,19c12.6,9.7,25.6,16.7,41.8,14.1c-12.9,6.1-25.7,4.8-38.3-0.3
	c-6.8-2.8-13.2-6.9-19.8-10.5c-3.8-2-7.4-4.6-11.4-6c-7.2-2.6-14.6-3.4-20.5,3.4C27.3,38.4,26,50,31.5,56.5
	C38.1,64.3,46.1,72.7,55,76c18.1,6.6,37.3,9.8,55.9,14.8c13.9,3.8,28.3,6.9,41.4,12.9c15.5,7,19.4,19.5,14.4,36.3
	C161.1,159.5,150.2,175.1,135.3,189.4z"/>
</svg>
