<?xml version="1.0" encoding="utf-8"?>
<!-- Generator: Adobe Illustrator 19.0.0, SVG Export Plug-In . SVG Version: 6.00 Build 0)  -->
<svg version="1.1" id="Layer_1" xmlns="http://www.w3.org/2000/svg" xmlns:xlink="http://www.w3.org/1999/xlink" x="0px" y="0px"
	 viewBox="-388 203.8 903 155.2" style="enable-background:new -388 203.8 903 155.2;" xml:space="preserve">
<style type="text/css">
	.st0{fill:#FFFFFF;}
	.st1{fill:#2A5BCE;}
</style>
<g id="Layer_2">
	<path id="XMLID_2_" class="st0" d="M-207.8,248.8c0-7.7-0.7-16.2-2.9-23.6c-1.8-5.8-5-11.3-10.1-14.6c-4.5-2.9-10.3-3.8-15.5-2.4
		c-7.4,2.1-12.7,8.4-17.5,14.3c-4.6,5.6-9.3,11.3-14.7,16.2c-5.4,4.9-11.6,9-18.5,11.3c-1.7,0.6-3.6,1.1-4.4,2.7
		c10,2.4,21.1,0.2,29.4-6c5.6-4.2,9.8-10,14.2-15.4c4.1-5.1,9.1-12.1,16.1-13c7.2-0.9,10.1,5.5,11.1,11.6c0.8,4.8,1.2,9.6,1.4,14.5
		c0.9,27.1-7.1,54.2-20.3,77.7c-2.5,4.4-5.2,8.7-8.3,12.8c-2.2,3-4.9,5.7-8.3,7.3c-3.5,1.7-7.5,2.1-11.3,1.6c-5.8-0.7-10.4-3-15-6.5
		c-0.4-0.3-0.9-0.7-1.5-0.7c-0.7,0-1.3,0.8-1.3,1.5c-0.1,0.7,0.2,1.4,0.5,2.1c3.7,7.7,11.7,13.3,20.3,14c11.8,1,20.1-6.5,26.4-15.5
		c7.5-10.7,13.3-22.8,18.1-34.9C-213,286.3-207.8,267.6-207.8,248.8z"/>
</g>
<g id="Layer_3">
	<path id="XMLID_73_" class="st1" d="M-283.4,280.9c1.1-2.1,2.4-4,4.1-5.6c2.9-2.8,6.8-4.7,10.8-4.4c0.4,0,0.9,0.1,1.3,0.3
		c0.8,0.5,1,1.7,0.6,2.7c-0.4,0.9-1.1,1.6-1.7,2.4c-8.5,9.6-5.4,23.7-6,35.4c-0.3,5.3-1.2,24.4-11,19.4c-2-1-2.6-3.7-2.3-5.9
		c0.7-5.4,4.1-13.6-1.9-17.3c-1.5-0.9-3.4-1.1-5.2-1.2c-3.4-0.1-6.7,0-10.1,0.5c-6.5,0.9-5.1,7.8-4.9,12.5c0.5,11.2-0.6,26-9.4,34.1
		c-5,4.7-12.4,4.2-18.1,1c-8.1-4.5-13.9-11.8-19.3-19.1c-18.9-25.5-33.1-56.8-29-89.3c0.7-5.8,2.1-11.6,4.5-16.9
		c5.5-12.3,17-22,30.5-23.6c9-1.1,17.9,1.7,25.3,6.8c3.6,2.5,6.6,6,10.1,8.7c5.4,4.2,11.1,8.7,17.6,11.2c2.3,0.9,4.8,1.3,7.2,2.2
		c0.7,0.3,1.4,0.6,1.9,1.1c0.2,0.2,0.6,0.6,0.6,0.8c-0.1,0.2-0.9,0.5-1.1,0.6c-3.9,1.8-8.6,1.9-12.8,1.1c-4.2-0.8-8.3-2.6-12-4.9
		c-5.5-3.5-10.6-7.6-16.2-11c-7.2-4.5-16.2-8-24.6-5c-7.6,2.7-13.1,9.4-16.5,16.5c-8.1,17-5.4,36,0.4,53.3
		c3.7,11,8.7,21.6,14.9,31.5c5.6,9,12.5,20.5,21.6,26.2c2,1.2,4.4,2.2,6.6,1.6c3.3-1,4.6-4.8,5.3-8.1c4.9-24,0.1-48.9,3.4-73.2
		c0.5-3.9,1.4-8,4.2-10.6c3.6-3.4,8.9-3.4,13.5-3.3c1,0,2,0.1,3,0.1c1,0.1,1.9,0,2.9,0.2c0.5,0.1,0.9,0.3,0.4,0.6
		c-0.3,0.2-0.7,0.4-1.1,0.5c-0.6,0.3-1.3,0.6-1.9,0.9c-2.5,1.2-4.1,3.5-5.4,5.9c-1.1,2-2,4.2-2.7,6.4c-1.3,4.4-1.8,9.1-1.8,13.7
		c0,2.8,0.2,5.5,0.5,8.3c0.2,1.3,0.4,2.7,1.2,3.8c2.2,3.1,8.3,3.2,11.6,2.8c5.6-0.7,7.3-4.4,9-9.2
		C-284.8,283.9-284.2,282.3-283.4,280.9z"/>
</g>
<g>
	<path class="st0" d="M-119.9,316.8h-12v-31.3h-31v31.3h-12v-70.5h12v29.4h31v-29.4h12V316.8z"/>
	<path class="st0" d="M-84.1,317.8c-7.3,0-13.3-2.3-17.8-7c-4.6-4.7-6.8-11-6.8-18.8v-1.5c0-5.2,1-9.9,3-14c2-4.1,4.8-7.3,8.4-9.6
		c3.6-2.3,7.6-3.4,12-3.4c7,0,12.4,2.3,16.3,6.8c3.8,4.6,5.7,11,5.7,19.3v4.7h-33.7c0.3,4.3,1.8,7.8,4.3,10.3
		c2.5,2.5,5.6,3.8,9.4,3.8c5.3,0,9.6-2.2,12.9-6.5l6.2,6.1c-2.1,3.1-4.8,5.6-8.3,7.3C-76,316.9-79.8,317.8-84.1,317.8z M-85.5,272.9
		c-3.2,0-5.7,1.1-7.7,3.4c-2,2.3-3.2,5.4-3.7,9.4h22v-0.9c-0.3-3.9-1.3-6.9-3.1-8.9C-79.8,273.9-82.3,272.9-85.5,272.9z"/>
	<path class="st0" d="M-42.2,316.8h-11.6v-74.4h11.6V316.8z"/>
	<path class="st0" d="M-31.6,290.2c0-8.1,1.9-14.6,5.6-19.5c3.8-4.9,8.8-7.3,15-7.3c5.9,0,10.5,2.1,13.9,6.2l0.5-5.3h10.4v50.8
		c0,6.9-2.1,12.3-6.3,16.3s-9.9,6-17,6c-3.8,0-7.5-0.8-11.1-2.4s-6.3-3.7-8.2-6.3l5.5-7.1c3.6,4.3,7.9,6.4,13.1,6.4
		c3.8,0,6.9-1.1,9.1-3.2c2.2-2.1,3.3-5.2,3.3-9.3v-3.5c-3.3,3.8-7.8,5.7-13.3,5.7c-6,0-11-2.4-14.8-7.3
		C-29.7,305.6-31.6,298.8-31.6,290.2z M-20.1,291.2c0,5.3,1.1,9.4,3.2,12.4c2.1,3,5,4.5,8.8,4.5c4.7,0,8.1-2,10.4-6.1V279
		c-2.2-4-5.6-6-10.3-6c-3.8,0-6.8,1.5-8.9,4.6C-19.1,280.7-20.1,285.2-20.1,291.2z"/>
	<path class="st0" d="M40.2,251.6v12.7h9.1v8.7h-9.1v29.3c0,2,0.4,3.4,1.2,4.3c0.8,0.9,2.2,1.3,4.2,1.3c1.3,0,2.7-0.2,4-0.5v9.1
		c-2.6,0.7-5.2,1.1-7.6,1.1c-8.9,0-13.3-5-13.3-15v-29.7h-8.5v-8.7h8.5v-12.7H40.2z"/>
	<path class="st0" d="M88.9,316.8c-0.5-1-1-2.6-1.3-4.9c-3.7,3.9-8.2,5.9-13.5,5.9c-5.2,0-9.4-1.5-12.7-4.5c-3.3-3-4.9-6.7-4.9-11.1
		c0-5.6,2-9.9,6.1-12.9c4.1-3,9.9-4.5,17.5-4.5h7.1v-3.4c0-2.7-0.7-4.9-2.2-6.5c-1.5-1.6-3.8-2.4-6.8-2.4c-2.6,0-4.8,0.7-6.5,2
		c-1.7,1.3-2.5,3-2.5,5.1H57.5c0-2.9,0.9-5.6,2.8-8.1c1.9-2.5,4.4-4.5,7.6-5.9s6.8-2.1,10.8-2.1c6,0,10.8,1.5,14.4,4.6
		c3.6,3.1,5.4,7.4,5.5,13v23.6c0,4.7,0.7,8.5,2,11.3v0.8H88.9z M76.1,308.3c2.3,0,4.4-0.6,6.5-1.7c2-1.1,3.5-2.6,4.5-4.6v-9.9h-6.2
		c-4.3,0-7.5,0.8-9.7,2.3s-3.2,3.7-3.2,6.4c0,2.3,0.7,4.1,2.2,5.4C71.7,307.6,73.7,308.3,76.1,308.3z"/>
	<path class="st0" d="M121.6,264.4l0.3,6.1c3.8-4.7,8.8-7,15-7c10.7,0,16.2,6.2,16.4,18.7v34.6h-11.6v-34c0-3.3-0.7-5.8-2.1-7.4
		c-1.4-1.6-3.7-2.4-6.9-2.4c-4.7,0-8.1,2.1-10.4,6.4v37.3h-11.6v-52.4H121.6z"/>
	<path class="st0" d="M162.9,290.2c0-8.1,1.8-14.6,5.5-19.4c3.7-4.9,8.6-7.3,14.8-7.3c5.5,0,9.9,1.9,13.2,5.8v-26.8H208v74.4h-10.5
		l-0.6-5.4c-3.5,4.3-8.1,6.4-13.9,6.4c-6,0-10.9-2.5-14.6-7.4C164.7,305.4,162.9,298.7,162.9,290.2z M174.4,291.2
		c0,5.3,1,9.5,3,12.5c2,3,4.9,4.5,8.6,4.5c4.7,0,8.2-2.1,10.4-6.4v-22.4c-2.1-4.2-5.6-6.3-10.3-6.3c-3.7,0-6.6,1.5-8.7,4.5
		C175.5,280.6,174.4,285.1,174.4,291.2z"/>
	<path class="st0" d="M238.2,301.9l10.9-37.5h11.9l-17.9,52.4h-10l-18-52.4h12L238.2,301.9z"/>
	<path class="st0" d="M298.4,316.8c-0.5-1-1-2.6-1.3-4.9c-3.7,3.9-8.2,5.9-13.5,5.9c-5.2,0-9.4-1.5-12.7-4.5
		c-3.3-3-4.9-6.7-4.9-11.1c0-5.6,2-9.9,6.1-12.9c4.1-3,9.9-4.5,17.5-4.5h7.1v-3.4c0-2.7-0.7-4.9-2.2-6.5c-1.5-1.6-3.8-2.4-6.8-2.4
		c-2.6,0-4.8,0.7-6.5,2c-1.7,1.3-2.5,3-2.5,5.1H267c0-2.9,0.9-5.6,2.8-8.1c1.9-2.5,4.4-4.5,7.6-5.9s6.8-2.1,10.8-2.1
		c6,0,10.8,1.5,14.4,4.6c3.6,3.1,5.4,7.4,5.5,13v23.6c0,4.7,0.7,8.5,2,11.3v0.8H298.4z M285.6,308.3c2.3,0,4.4-0.6,6.5-1.7
		c2-1.1,3.5-2.6,4.5-4.6v-9.9h-6.2c-4.3,0-7.5,0.8-9.7,2.3s-3.2,3.7-3.2,6.4c0,2.3,0.7,4.1,2.2,5.4
		C281.2,307.6,283.2,308.3,285.6,308.3z M288.7,237.8c3,0,5.4,1,7.5,3c2,2,3,4.4,3,7.1c0,2.7-1,5.1-3,7c-2,1.9-4.5,2.9-7.5,2.9
		c-3.1,0-5.6-1-7.6-2.9c-2-1.9-3-4.3-3-7c0-2.7,1-5.1,3-7.1C283.2,238.8,285.7,237.8,288.7,237.8z M283.4,247.9
		c0,1.5,0.5,2.8,1.6,3.9c1,1,2.3,1.6,3.8,1.6c1.5,0,2.8-0.5,3.8-1.5c1-1,1.5-2.3,1.5-3.9c0-1.5-0.5-2.8-1.5-3.9
		c-1-1.1-2.3-1.6-3.8-1.6c-1.6,0-2.8,0.5-3.8,1.6C283.9,245.1,283.4,246.4,283.4,247.9z"/>
	<path class="st0" d="M347.3,275.1c-1.5-0.3-3.1-0.4-4.7-0.4c-5.3,0-8.9,2.1-10.7,6.2v35.8h-11.6v-52.4h11l0.3,5.9
		c2.8-4.6,6.7-6.8,11.6-6.8c1.6,0,3,0.2,4.1,0.7L347.3,275.1z"/>
	<path class="st0" d="M351.5,290.2c0-8.1,1.8-14.6,5.5-19.4c3.7-4.9,8.6-7.3,14.8-7.3c5.5,0,9.9,1.9,13.2,5.8v-26.8h11.6v74.4h-10.5
		l-0.6-5.4c-3.5,4.3-8.1,6.4-13.9,6.4c-6,0-10.9-2.5-14.6-7.4C353.4,305.4,351.5,298.7,351.5,290.2z M363.1,291.2
		c0,5.3,1,9.5,3,12.5c2,3,4.9,4.5,8.6,4.5c4.7,0,8.2-2.1,10.4-6.4v-22.4c-2.1-4.2-5.6-6.3-10.3-6.3c-3.7,0-6.6,1.5-8.7,4.5
		C364.1,280.6,363.1,285.1,363.1,291.2z"/>
	<path class="st0" d="M431.4,317.8c-7.3,0-13.3-2.3-17.8-7c-4.6-4.7-6.8-11-6.8-18.8v-1.5c0-5.2,1-9.9,3-14c2-4.1,4.8-7.3,8.4-9.6
		c3.6-2.3,7.6-3.4,12-3.4c7,0,12.4,2.3,16.3,6.8c3.8,4.6,5.7,11,5.7,19.3v4.7h-33.7c0.3,4.3,1.8,7.8,4.3,10.3
		c2.5,2.5,5.6,3.8,9.4,3.8c5.3,0,9.6-2.2,12.9-6.5l6.2,6.1c-2.1,3.1-4.8,5.6-8.3,7.3C439.5,316.9,435.7,317.8,431.4,317.8z
		 M430,272.9c-3.2,0-5.7,1.1-7.7,3.4c-2,2.3-3.2,5.4-3.7,9.4h22v-0.9c-0.3-3.9-1.3-6.9-3.1-8.9C435.7,273.9,433.2,272.9,430,272.9z"
		/>
	<path class="st0" d="M471.8,264.4l0.3,6.1c3.8-4.7,8.8-7,15-7c10.7,0,16.2,6.2,16.4,18.7v34.6h-11.6v-34c0-3.3-0.7-5.8-2.1-7.4
		c-1.4-1.6-3.7-2.4-6.9-2.4c-4.7,0-8.1,2.1-10.4,6.4v37.3h-11.6v-52.4H471.8z"/>
</g>
</svg>
